# xmcd
#
# Track frame offsets: 
#        150
#        14874
#        28991
#        40971
#        53743
#        66508
#        80619
#        93722
#        104179
#        116139
#        129210
#        141887
#        153758
#        167261
#        178678
#        191365
#        205961
#        219948
#        234026
#        246481
#        257580
#        268631
#        284885
#        296364
#        315515
#        329291
#        342638
#
# Disc length: 4788 seconds
#
# Revision: 0
# Processed by: cddbd v1.5.2PL0 Copyright (c) Steve Scherf et al.
# Submitted via: ExactAudioCopy v1.0b1
#
DISCID=a012b21b
DTITLE=Freddie King - Complete King Federal Singles [CD1]
DYEAR=2012
DGENRE=Blues
TTITLE0=You've Got To Love Her With A Feeling (1960)
TTITLE1=Have You Ever Loved A Woman (1960)
TTITLE2=Hide Away (1961)
TTITLE3=I Love The Woman (1961)
TTITLE4=Lonesome Whistle Blues (1961)
TTITLE5=It's Too Bad Things Are Going So Tough (1961)
TTITLE6=San-Ho-Zay! (1961)
TTITLE7=See See Baby (1961)
TTITLE8=I'm Tore Down (1961)
TTITLE9=Sen-Sa-Shun (1961)
TTITLE10=Christmas Tears (1961)
TTITLE11=I Hear Jingle Bells (1961)
TTITLE12=If You Believe (In What You Do) (1961)
TTITLE13=Heads Up (1961)
TTITLE14=Takin' Care Of Business (1962)
TTITLE15=Stumble, The (1962)
TTITLE16=Side Tracked (1962)
TTITLE17=Sittin' On The Boat Dock (1962)
TTITLE18=Do The President Twist (1962)
TTITLE19=What About Love (1962)
TTITLE20=Texas Oil (1962)
TTITLE21=Come On (1962)
TTITLE22=Just Pickin' (1962)
TTITLE23=(Let Your Love) Watch Over Me (1962)
TTITLE24=You Can't Hide (1962)
TTITLE25=In The Open (1962)
TTITLE26=I'm On My Way To Atlanta (1962)
EXTD=
EXTT0=
EXTT1=
EXTT2=
EXTT3=
EXTT4=
EXTT5=
EXTT6=
EXTT7=
EXTT8=
EXTT9=
EXTT10=
EXTT11=
EXTT12=
EXTT13=
EXTT14=
EXTT15=
EXTT16=
EXTT17=
EXTT18=
EXTT19=
EXTT20=
EXTT21=
EXTT22=
EXTT23=
EXTT24=
EXTT25=
EXTT26=
PLAYORDER=
